<svg width="20" height="20" viewBox="0 0 20 20" fill="none" xmlns="http://www.w3.org/2000/svg">
<g opacity="0.2">
<rect opacity="0.01" width="20" height="20" fill="black"/>
<path fill-rule="evenodd" clip-rule="evenodd" d="M1.6665 10C1.6665 5.39763 5.39746 1.66667 9.99984 1.66667C12.21 1.66667 14.3296 2.54465 15.8924 4.10745C17.4552 5.67025 18.3332 7.78987 18.3332 10C18.3332 14.6024 14.6022 18.3333 9.99984 18.3333C5.39746 18.3333 1.6665 14.6024 1.6665 10ZM3.33317 10C3.33317 13.6819 6.31794 16.6667 9.99984 16.6667C11.7679 16.6667 13.4636 15.9643 14.7139 14.7141C15.9641 13.4638 16.6665 11.7681 16.6665 10C16.6665 6.31811 13.6817 3.33334 9.99984 3.33334C6.31794 3.33334 3.33317 6.31811 3.33317 10Z" fill="black"/>
<path d="M9.99984 14.1667C10.4601 14.1667 10.8332 13.7936 10.8332 13.3333C10.8332 12.8731 10.4601 12.5 9.99984 12.5C9.5396 12.5 9.1665 12.8731 9.1665 13.3333C9.1665 13.7936 9.5396 14.1667 9.99984 14.1667Z" fill="black"/>
<path d="M9.99984 5.83333C9.5396 5.83333 9.1665 6.20642 9.1665 6.66666V10.8333C9.1665 11.2936 9.5396 11.6667 9.99984 11.6667C10.4601 11.6667 10.8332 11.2936 10.8332 10.8333V6.66666C10.8332 6.20642 10.4601 5.83333 9.99984 5.83333Z" fill="black"/>
</g>
</svg>
