<svg width="19" height="19" viewBox="0 0 19 19" fill="none" xmlns="http://www.w3.org/2000/svg">
<g opacity="0.2">
<rect opacity="0.01" width="19" height="19" fill="black"/>
<rect opacity="0.01" width="19" height="19" fill="black"/>
<path fill-rule="evenodd" clip-rule="evenodd" d="M1.58325 9.50001C1.58325 5.12776 5.12766 1.58334 9.49992 1.58334C11.5995 1.58334 13.6132 2.41742 15.0978 3.90208C16.5825 5.38674 17.4166 7.40038 17.4166 9.50001C17.4166 13.8723 13.8722 17.4167 9.49992 17.4167C5.12766 17.4167 1.58325 13.8723 1.58325 9.50001ZM10.917 3.33293C10.4522 3.22555 9.97696 3.16979 9.49992 3.16668C6.00212 3.16668 3.16659 6.00221 3.16659 9.50001C3.16779 9.88227 3.20222 10.2637 3.2695 10.64C4.29867 11.0675 5.95325 11.5425 7.03784 10.6954C7.78992 10.1333 7.78992 9.50001 7.78992 8.42334C7.72152 7.52453 7.8908 6.62354 8.28075 5.81084C8.63671 5.2427 9.14385 4.7849 9.74534 4.48876C9.78163 4.46608 9.81792 4.44368 9.8541 4.42136L9.85413 4.42134C10.0074 4.32679 10.1586 4.23346 10.2995 4.12459C10.5673 3.91549 10.7794 3.64357 10.917 3.33293ZM3.95825 12.5083C4.47555 12.6428 5.00715 12.7146 5.54159 12.7221C6.43585 12.7467 7.31208 12.4676 8.02742 11.9304C9.38117 10.8696 9.38117 9.50793 9.38117 8.41543C9.32113 7.78311 9.42188 7.14587 9.67409 6.56293C9.9032 6.25094 10.2085 6.00291 10.5608 5.84251C10.8125 5.69542 11.0556 5.53419 11.2891 5.35959C11.7811 4.97098 12.1631 4.46069 12.3974 3.87918C13.5113 4.44907 14.4313 5.33609 15.0416 6.42834C13.9095 6.58668 12.3024 6.95876 11.9858 8.43126C11.9143 8.78308 11.8772 9.14101 11.8749 9.50001C11.9005 9.90127 11.8214 10.3023 11.6453 10.6638L11.5662 10.7983C11.0516 11.6533 10.4737 12.6271 11.2574 13.965C11.3524 14.1312 11.4553 14.2896 11.5582 14.4479L11.5582 14.4479L11.5583 14.4479C11.769 14.6913 11.911 14.9864 11.9699 15.3029C11.1913 15.6461 10.3508 15.8266 9.49992 15.8333C7.18365 15.8218 5.05846 14.5467 3.95825 12.5083ZM12.9041 13.6008C13.0989 13.885 13.2659 14.1872 13.4028 14.5033L13.3791 14.5429C15.3799 13.0096 16.2712 10.4293 15.6433 7.98793C14.8833 8.04334 13.6562 8.20168 13.5295 8.77959C13.4813 9.04071 13.4575 9.30574 13.4583 9.57126C13.4885 10.239 13.341 10.9029 13.0308 11.495L12.9516 11.6296C12.4528 12.4213 12.342 12.6746 12.6508 13.2129C12.7299 13.3475 12.817 13.4742 12.9041 13.6008Z" fill="black"/>
</g>
</svg>
