<svg width="19" height="19" viewBox="0 0 19 19" fill="none" xmlns="http://www.w3.org/2000/svg">
<g opacity="0.2">
<rect opacity="0.01" width="19" height="19" fill="black"/>
<path fill-rule="evenodd" clip-rule="evenodd" d="M16.4588 8.9775L13.8146 3.68917C13.4118 2.88234 12.5868 2.37323 11.685 2.375H7.31501C6.41322 2.37323 5.58823 2.88234 5.18543 3.68917L2.54126 8.9775C2.43098 9.19877 2.37404 9.44278 2.37501 9.69V14.25C2.37501 15.5617 3.43834 16.625 4.75001 16.625H14.25C15.5617 16.625 16.625 15.5617 16.625 14.25V9.69C16.626 9.44278 16.569 9.19877 16.4588 8.9775ZM6.60251 4.39375C6.73794 4.12498 7.01405 3.95624 7.31501 3.95834H11.685C11.986 3.95624 12.2621 4.12498 12.3975 4.39375L14.5508 8.70834H4.44918L6.60251 4.39375ZM4.75001 15.0417H14.25C14.6872 15.0417 15.0417 14.6872 15.0417 14.25V10.2917H3.95835V14.25C3.95835 14.6872 4.31279 15.0417 4.75001 15.0417Z" fill="black"/>
<path d="M12.6666 11.875H9.49992C9.06269 11.875 8.70825 12.2294 8.70825 12.6667C8.70825 13.1039 9.06269 13.4583 9.49992 13.4583H12.6666C13.1038 13.4583 13.4583 13.1039 13.4583 12.6667C13.4583 12.2294 13.1038 11.875 12.6666 11.875Z" fill="black"/>
<path d="M6.33341 13.4583C6.77064 13.4583 7.12508 13.1039 7.12508 12.6667C7.12508 12.2294 6.77064 11.875 6.33341 11.875C5.89619 11.875 5.54175 12.2294 5.54175 12.6667C5.54175 13.1039 5.89619 13.4583 6.33341 13.4583Z" fill="black"/>
</g>
</svg>
