<svg width="20" height="20" viewBox="0 0 20 20" fill="none" xmlns="http://www.w3.org/2000/svg">
<g opacity="0.2">
<rect opacity="0.01" width="20" height="20" fill="black"/>
<path fill-rule="evenodd" clip-rule="evenodd" d="M1.6665 10C1.6665 5.39763 5.39746 1.66667 9.99984 1.66667C12.21 1.66667 14.3296 2.54465 15.8924 4.10745C17.4552 5.67025 18.3332 7.78987 18.3332 10C18.3332 14.6024 14.6022 18.3333 9.99984 18.3333C5.39746 18.3333 1.6665 14.6024 1.6665 10ZM3.33317 10C3.33317 13.6819 6.31794 16.6667 9.99984 16.6667C11.7679 16.6667 13.4636 15.9643 14.7139 14.7141C15.9641 13.4638 16.6665 11.7681 16.6665 10C16.6665 6.31811 13.6817 3.33334 9.99984 3.33334C6.31794 3.33334 3.33317 6.31811 3.33317 10Z" fill="black"/>
<path d="M12.4998 9.16667H10.8332V7.50001C10.8332 7.03977 10.4601 6.66667 9.99984 6.66667C9.5396 6.66667 9.1665 7.03977 9.1665 7.50001V9.16667H7.49984C7.0396 9.16667 6.6665 9.53977 6.6665 10C6.6665 10.4602 7.0396 10.8333 7.49984 10.8333H9.1665V12.5C9.1665 12.9602 9.5396 13.3333 9.99984 13.3333C10.4601 13.3333 10.8332 12.9602 10.8332 12.5V10.8333H12.4998C12.9601 10.8333 13.3332 10.4602 13.3332 10C13.3332 9.53977 12.9601 9.16667 12.4998 9.16667Z" fill="black"/>
</g>
</svg>
